<?xml version="1.0" standalone="yes"?>
<svg xmlns="http://www.w3.org/2000/svg" width="265" height="287">
<path style="fill:#ffffff; stroke:none;" d="M0 0L0 49L1 49C4.36689 41.9546 12.1073 40.1576 16.9946 47.1852C23.4736 56.5015 25.1111 69.9675 31.2045 80C34.0936 84.7569 40.7919 90.146 40.7824 96C40.7633 107.769 27.6274 105.06 22.4637 98.9846C12.0501 86.7319 4.61378 70.6206 1 55L0 55L0 287L265 287L265 56L264 56C261.765 71.1332 252.781 88.5749 242.7 99.9846C237.498 105.872 224.861 108.781 224.573 97C224.437 91.4457 231.399 85.4969 234.186 81C240.393 70.9849 241.847 57.3026 248.563 48.044C253.031 41.8848 260.392 42.6008 264 49L265 49L265 0L136 0L136 1C147.713 9.72849 142.07 40.4851 141.999 54C141.969 59.7268 140.125 67.4994 133 68.0833C126.037 68.6541 123.161 60.4927 123.015 55C122.653 41.3946 117.435 10.1393 129 1C118.734 -3.30765 101.158 0 90 0L0 0z"/>
<path style="fill:#bbb9cb; stroke:none;" d="M129 0L130 1L129 0z"/>
<path style="fill:#aba9bd; stroke:none;" d="M130 0L130 1L135 1L130 0z"/>
<path style="fill:#bbb9cb; stroke:none;" d="M135 0L136 1L135 0M127 1L126 3L127 1z"/>
<path style="fill:#aba9bd; stroke:none;" d="M128 1L129 2L128 1z"/>
<path style="fill:#8b85b0; stroke:none;" d="M129.044 1.74228C122.917 4.22595 124 11.638 124 17C124 30.8444 122.889 45.2103 124.094 59C124.609 64.8929 128.765 69.2665 134.985 67.3434C140.992 65.4859 141.929 59.4717 141.996 54C142.17 39.8548 144.895 21.743 141.467 8.01465C140.07 2.42056 134.523 -0.478943 129.044 1.74228z"/>
<path style="fill:#bbb9cb; stroke:none;" d="M137 1L138 2L137 1z"/>
<path style="fill:#aba9bd; stroke:none;" d="M138 2L139 3L138 2z"/>
<path style="fill:#c8c6d6; stroke:none;" d="M125 3L126 4L125 3M140 4L141 5L140 4z"/>
<path style="fill:#aba9bd; stroke:none;" d="M124 5L125 6L124 5z"/>
<path style="fill:#c8c6d6; stroke:none;" d="M141 6L142 7L141 6z"/>
<path style="fill:#aba9bd; stroke:none;" d="M141 7L142 8L141 7z"/>
<path style="fill:#c8c6d6; stroke:none;" d="M123 8L123 28L124 28L123 8z"/>
<path style="fill:#bbb9cb; stroke:none;" d="M63 11L64 12L63 11z"/>
<path style="fill:#8b85b0; stroke:none;" d="M64.0185 11.7577C57.3746 14.1917 58.0905 21.3929 58.8696 27C60.7996 40.8899 63.8852 54.9298 69.0687 68C71.317 73.6691 76.2274 79.1255 82.8951 76.142C87.3116 74.1657 88.2757 69.2938 87.2353 65C83.6158 50.0616 80.3896 32.4464 75.3619 18.0154C73.7819 13.4805 68.9114 9.96524 64.0185 11.7577z"/>
<path style="fill:#aba9bd; stroke:none;" d="M69 11L70 12L69 11z"/>
<path style="fill:#c8c6d6; stroke:none;" d="M61 12L62 13L61 12z"/>
<path style="fill:#aba9bd; stroke:none;" d="M71 12L72 13L71 12z"/>
<path style="fill:#c8c6d6; stroke:none;" d="M72 12L73 13L72 12z"/>
<path style="fill:#bbb9cb; stroke:none;" d="M194 12L195 13L194 12z"/>
<path style="fill:#8b85b0; stroke:none;" d="M195.044 12.8619C190.081 14.9279 189.377 20.3338 188.586 25C186.982 34.4714 185.315 43.8416 182.33 53C180.677 58.0742 176.975 64.6051 177.318 69.9992C177.718 76.3099 184.246 79.6116 189.906 77.2577C194.809 75.2184 196.446 68.5517 197.997 64C202.29 51.3994 206.173 37.3607 206.907 24C207.264 17.4933 202.607 9.71381 195.044 12.8619z"/>
<path style="fill:#aba9bd; stroke:none;" d="M201 12L202 13L201 12z"/>
<path style="fill:#bbb9cb; stroke:none;" d="M60 13L61 14L60 13M73 13L74 14L73 13z"/>
<path style="fill:#aba9bd; stroke:none;" d="M193 13L194 14L193 13z"/>
<path style="fill:#bbb9cb; stroke:none;" d="M203 13L204 14L203 13M204 14L205 15L204 14z"/>
<path style="fill:#aba9bd; stroke:none;" d="M74 15L75 16L74 15z"/>
<path style="fill:#c8c6d6; stroke:none;" d="M58 16L59 17L58 16M75 16L76 17L75 16z"/>
<path style="fill:#aba9bd; stroke:none;" d="M190 16L191 17L190 16M58 17L59 18L58 17M75 17L76 18L75 17M206 17L207 18L206 17z"/>
<path style="fill:#bbb9cb; stroke:none;" d="M189 18L190 19L189 18z"/>
<path style="fill:#aba9bd; stroke:none;" d="M189 19L190 20L189 19z"/>
<path style="fill:#c8c6d6; stroke:none;" d="M76 20L77 21L76 20M207.333 20.6667L207.667 21.3333L207.333 20.6667z"/>
<path style="fill:#bbb9cb; stroke:none;" d="M76 21L77 22L76 21z"/>
<path style="fill:#aba9bd; stroke:none;" d="M76.3333 22.6667L76.6667 23.3333L76.3333 22.6667z"/>
<path style="fill:#c8c6d6; stroke:none;" d="M188 23L189 24L188 23z"/>
<path style="fill:#aba9bd; stroke:none;" d="M58.3333 24.6667L58.6667 25.3333L58.3333 24.6667z"/>
<path style="fill:#bbb9cb; stroke:none;" d="M188 24L189 25L188 24z"/>
<path style="fill:#aba9bd; stroke:none;" d="M188 25L189 26L188 25z"/>
<path style="fill:#c8c6d6; stroke:none;" d="M58 26L59 27L58 26M77 26L78 27L77 26z"/>
<path style="fill:#bbb9cb; stroke:none;" d="M77.3333 27.6667L77.6667 28.3333L77.3333 27.6667z"/>
<path style="fill:#aba9bd; stroke:none;" d="M206.333 27.6667L206.667 28.3333L206.333 27.6667z"/>
<path style="fill:#bbb9cb; stroke:none;" d="M123 28L124 29L123 28z"/>
<path style="fill:#aba9bd; stroke:none;" d="M77 29L78 30L77 29z"/>
<path style="fill:#c8c6d6; stroke:none;" d="M123 29L123 36L124 36L123 29M187 29L188 30L187 29M206 29L207 30L206 29z"/>
<path style="fill:#bbb9cb; stroke:none;" d="M187 30L188 31L187 30z"/>
<path style="fill:#aba9bd; stroke:none;" d="M59 31L60 32L59 31M187 31L188 32L187 31M205 33L206 34L205 33z"/>
<path style="fill:#bbb9cb; stroke:none;" d="M78 34L79 35L78 34z"/>
<path style="fill:#c8c6d6; stroke:none;" d="M205 34L206 35L205 34z"/>
<path style="fill:#aba9bd; stroke:none;" d="M60.3333 36.6667L60.6667 37.3333L60.3333 36.6667z"/>
<path style="fill:#bbb9cb; stroke:none;" d="M123 36L124 37L123 36z"/>
<path style="fill:#c8c6d6; stroke:none;" d="M186 36L187 37L186 36M123 37L123 52L124 52L123 37z"/>
<path style="fill:#aba9bd; stroke:none;" d="M186 37L187 38L186 37z"/>
<path style="fill:#bbb9cb; stroke:none;" d="M60 38L61 39L60 38M79 38L80 39L79 38z"/>
<path style="fill:#c8c6d6; stroke:none;" d="M60 39L61 40L60 39z"/>
<path style="fill:#aba9bd; stroke:none;" d="M79 39L80 40L79 39M204 39L205 40L204 39z"/>
<path style="fill:#c8c6d6; stroke:none;" d="M204 40L205 41L204 40z"/>
<path style="fill:#aba9bd; stroke:none;" d="M185 41L186 42L185 41z"/>
<path style="fill:#bbb9cb; stroke:none;" d="M6 42L7 43L6 42z"/>
<path style="fill:#aba9bd; stroke:none;" d="M7 42L8 43L7 42z"/>
<path style="fill:#8b85b0; stroke:none;" d="M8.00077 42.7469C-0.389577 44.2083 0.472371 53.895 2.34799 60C6.25261 72.7092 11.824 85.3597 19.8997 96C23.1733 100.313 27.8591 105.878 33.9846 104.387C38.4601 103.298 41.391 98.485 40.385 94C38.8552 87.1794 31.6725 81.1189 28.3117 75C23.5931 66.4089 21.933 56.5707 17.4421 48.0193C15.6137 44.5376 12.0946 42.0339 8.00077 42.7469z"/>
<path style="fill:#aba9bd; stroke:none;" d="M10.6667 42.3333L11.3333 42.6667L10.6667 42.3333M61 42L62 43L61 42z"/>
<path style="fill:#bbb9cb; stroke:none;" d="M80 42L81 43L80 42z"/>
<path style="fill:#c8c6d6; stroke:none;" d="M4 43L5 44L4 43M61 43L62 44L61 43z"/>
<path style="fill:#aba9bd; stroke:none;" d="M80 43L81 44L80 43z"/>
<path style="fill:#bbb9cb; stroke:none;" d="M253 43L254 44L253 43z"/>
<path style="fill:#aba9bd; stroke:none;" d="M254 43L254 44L258 44L254 43z"/>
<path style="fill:#c8c6d6; stroke:none;" d="M258 43L259 44L258 43z"/>
<path style="fill:#bbb9cb; stroke:none;" d="M3 44L4 45L3 44z"/>
<path style="fill:#aba9bd; stroke:none;" d="M203 44L204 45L203 44z"/>
<path style="fill:#bbb9cb; stroke:none;" d="M251 44L252 45L251 44z"/>
<path style="fill:#8b85b0; stroke:none;" d="M252.094 44.7423C247.347 46.7176 246.436 52.6548 244.999 57C242.224 65.3912 238.612 73.4795 233.934 81C231.168 85.448 226.299 89.7247 225.282 95C224.042 101.439 229.271 107.317 235.961 105.332C240.682 103.931 244.095 98.7706 246.841 95C254.846 84.007 260.961 70.2387 264.101 57C265.867 49.5553 260.694 41.164 252.094 44.7423z"/>
<path style="fill:#aba9bd; stroke:none;" d="M2 45L3 46L2 45z"/>
<path style="fill:#c8c6d6; stroke:none;" d="M16 45L17 46L16 45z"/>
<path style="fill:#aba9bd; stroke:none;" d="M184 45L185 46L184 45z"/>
<path style="fill:#c8c6d6; stroke:none;" d="M203 45L204 46L203 45z"/>
<path style="fill:#aba9bd; stroke:none;" d="M261 45L262 46L261 45z"/>
<path style="fill:#bbb9cb; stroke:none;" d="M1 46L2 47L1 46z"/>
<path style="fill:#aba9bd; stroke:none;" d="M62 46L63 47L62 46z"/>
<path style="fill:#c8c6d6; stroke:none;" d="M81 46L82 47L81 46z"/>
<path style="fill:#aba9bd; stroke:none;" d="M262 46L264 48L262 46z"/>
<path style="fill:#c8c6d6; stroke:none;" d="M263 46L264 47L263 46z"/>
<path style="fill:#aba9bd; stroke:none;" d="M17 47L18 48L17 47M81 47L82 48L81 47M248 47L249 48L248 47z"/>
<path style="fill:#c8c6d6; stroke:none;" d="M183 48L184 49L183 48z"/>
<path style="fill:#aba9bd; stroke:none;" d="M202 48L203 49L202 48z"/>
<path style="fill:#bbb9cb; stroke:none;" d="M247 48L248 49L247 48z"/>
<path style="fill:#aba9bd; stroke:none;" d="M0 49L0 54L1 54L0 49z"/>
<path style="fill:#c8c6d6; stroke:none;" d="M18 49L19 50L18 49z"/>
<path style="fill:#aba9bd; stroke:none;" d="M183 49L184 50L183 49z"/>
<path style="fill:#c8c6d6; stroke:none;" d="M202 49L203 50L202 49z"/>
<path style="fill:#aba9bd; stroke:none;" d="M18 50L19 51L18 50M63 50L64 51L63 50M82 51L83 52L82 51z"/>
<path style="fill:#bbb9cb; stroke:none;" d="M123 52L123 57L124 57L123 52z"/>
<path style="fill:#c8c6d6; stroke:none;" d="M182 52L183 53L182 52z"/>
<path style="fill:#aba9bd; stroke:none;" d="M201 52L202 53L201 52M246 52L247 53L246 52z"/>
<path style="fill:#bbb9cb; stroke:none;" d="M19 53L20 54L19 53z"/>
<path style="fill:#c8c6d6; stroke:none;" d="M0 54L1 55L0 54z"/>
<path style="fill:#bbb9cb; stroke:none;" d="M64 54L65 55L64 54z"/>
<path style="fill:#aba9bd; stroke:none;" d="M83 54L84 55L83 54z"/>
<path style="fill:#c8c6d6; stroke:none;" d="M64 55L65 56L64 55M245 55L246 56L245 55z"/>
<path style="fill:#aba9bd; stroke:none;" d="M264 55L265 56L264 55z"/>
<path style="fill:#bbb9cb; stroke:none;" d="M20 56L21 57L20 56z"/>
<path style="fill:#c8c6d6; stroke:none;" d="M84 56L85 57L84 56z"/>
<path style="fill:#bbb9cb; stroke:none;" d="M200 56L201 57L200 56M1 57L2 58L1 57z"/>
<path style="fill:#aba9bd; stroke:none;" d="M65 57L66 58L65 57M84 57L85 58L84 57z"/>
<path style="fill:#c8c6d6; stroke:none;" d="M123 57L123 61L124 61L123 57M65 58L66 59L65 58M180 58L181 59L180 58z"/>
<path style="fill:#bbb9cb; stroke:none;" d="M244 58L245 59L244 58M21 59L22 60L21 59z"/>
<path style="fill:#c8c6d6; stroke:none;" d="M85 59L86 60L85 59z"/>
<path style="fill:#aba9bd; stroke:none;" d="M199 59L200 60L199 59z"/>
<path style="fill:#bbb9cb; stroke:none;" d="M263 59L264 60L263 59z"/>
<path style="fill:#aba9bd; stroke:none;" d="M2 60L3 61L2 60M66 60L67 61L66 60M141 60L142 61L141 60z"/>
<path style="fill:#c8c6d6; stroke:none;" d="M243 60L244 61L243 60z"/>
<path style="fill:#bbb9cb; stroke:none;" d="M141 61L142 62L141 61M179 61L180 62L179 61z"/>
<path style="fill:#aba9bd; stroke:none;" d="M243 61L244 62L243 61M22 62L23 63L22 62M86 62L87 63L86 62M124 62L125 63L124 62M198 62L199 63L198 62M262 62L263 63L262 62M3 63L4 64L3 63M67 63L68 64L67 63z"/>
<path style="fill:#bbb9cb; stroke:none;" d="M124 63L125 64L124 63z"/>
<path style="fill:#aba9bd; stroke:none;" d="M140 63L141 64L140 63z"/>
<path style="fill:#bbb9cb; stroke:none;" d="M23 64L24 65L23 64M87 64L88 65L87 64z"/>
<path style="fill:#aba9bd; stroke:none;" d="M178 64L179 65L178 64M242 64L243 65L242 64M87 65L88 66L87 65z"/>
<path style="fill:#bbb9cb; stroke:none;" d="M197 65L198 66L197 65M261 65L262 66L261 65z"/>
<path style="fill:#aba9bd; stroke:none;" d="M4 66L5 67L4 66z"/>
<path style="fill:#c8c6d6; stroke:none;" d="M24 66L25 67L24 66z"/>
<path style="fill:#aba9bd; stroke:none;" d="M68 66L69 67L68 66M137 66L138 67L137 66z"/>
<path style="fill:#bbb9cb; stroke:none;" d="M177 66L178 67L177 66M241 66L242 67L241 66z"/>
<path style="fill:#aba9bd; stroke:none;" d="M24 67L25 68L24 67z"/>
<path style="fill:#c8c6d6; stroke:none;" d="M128 67L129 68L128 67z"/>
<path style="fill:#aba9bd; stroke:none;" d="M135 67L136 68L135 67z"/>
<path style="fill:#c8c6d6; stroke:none;" d="M136 67L137 68L136 67M131 68L132 69L131 68z"/>
<path style="fill:#bbb9cb; stroke:none;" d="M132 68L133 69L132 68z"/>
<path style="fill:#c8c6d6; stroke:none;" d="M133 68L134 69L133 68M196 68L197 69L196 68z"/>
<path style="fill:#bbb9cb; stroke:none;" d="M240 68L241 69L240 68z"/>
<path style="fill:#c8c6d6; stroke:none;" d="M260.333 68.6667L260.667 69.3333L260.333 68.6667z"/>
<path style="fill:#bbb9cb; stroke:none;" d="M5 69L6 70L5 69z"/>
<path style="fill:#aba9bd; stroke:none;" d="M25 69L26 70L25 69z"/>
<path style="fill:#c8c6d6; stroke:none;" d="M69 69L70 70L69 69z"/>
<path style="fill:#aba9bd; stroke:none;" d="M195 70L196 71L195 70z"/>
<path style="fill:#c8c6d6; stroke:none;" d="M239 70L240 71L239 70z"/>
<path style="fill:#aba9bd; stroke:none;" d="M259 70L260 71L259 70M6 71L7 72L6 71z"/>
<path style="fill:#bbb9cb; stroke:none;" d="M26 71L27 72L26 71z"/>
<path style="fill:#c8c6d6; stroke:none;" d="M70 71L71 72L70 71z"/>
<path style="fill:#aba9bd; stroke:none;" d="M87 71L88 72L87 71M239 71L240 72L239 71z"/>
<path style="fill:#c8c6d6; stroke:none;" d="M259 71L260 72L259 71z"/>
<path style="fill:#bbb9cb; stroke:none;" d="M177 72L178 73L177 72M27 73L28 74L27 73z"/>
<path style="fill:#c8c6d6; stroke:none;" d="M71 73L72 74L71 73z"/>
<path style="fill:#aba9bd; stroke:none;" d="M86 73L87 74L86 73M258 73L259 74L258 73z"/>
<path style="fill:#c8c6d6; stroke:none;" d="M7 74L8 75L7 74z"/>
<path style="fill:#aba9bd; stroke:none;" d="M72 74L73 75L72 74z"/>
<path style="fill:#bbb9cb; stroke:none;" d="M124 74L125 75L124 74z"/>
<path style="fill:#aba9bd; stroke:none;" d="M125 74L125 75L128 75L125 74z"/>
<path style="fill:#8b85b0; stroke:none;" d="M128 74.4244C91.7453 79.1824 61.3854 91.9721 33 115.586C25.7965 121.579 9.91521 131.692 9.31867 142C8.6803 153.031 27.5401 164.88 35 171.079C65.8604 196.727 106.326 214.725 147 209.714C179.201 205.747 209.671 188.879 234 167.999C240.688 162.259 255.123 152.652 255.681 143C256.294 132.412 238.281 120.368 231 114.46C204.202 92.7156 164.17 69.6774 128 74.4244z"/>
<path style="fill:#aba9bd; stroke:none;" d="M138.667 74.3333L139.333 74.6667L138.667 74.3333z"/>
<path style="fill:#bbb9cb; stroke:none;" d="M140 74L141 75L140 74M178 74L179 75L178 74z"/>
<path style="fill:#aba9bd; stroke:none;" d="M193 74L194 75L193 74M28 75L29 76L28 75M73 75L74 76L73 75M84 75L85 76L84 75z"/>
<path style="fill:#c8c6d6; stroke:none;" d="M113 75L114 76L113 75z"/>
<path style="fill:#bbb9cb; stroke:none;" d="M114 75L115 76L114 75z"/>
<path style="fill:#aba9bd; stroke:none;" d="M115.667 75.3333L116.333 75.6667L115.667 75.3333M148.667 75.3333L149.333 75.6667L148.667 75.3333z"/>
<path style="fill:#bbb9cb; stroke:none;" d="M150 75L151 76L150 75z"/>
<path style="fill:#c8c6d6; stroke:none;" d="M151 75L152 76L151 75z"/>
<path style="fill:#aba9bd; stroke:none;" d="M257 75L258 76L257 75z"/>
<path style="fill:#bbb9cb; stroke:none;" d="M8 76L9 77L8 76z"/>
<path style="fill:#aba9bd; stroke:none;" d="M83 76L84 77L83 76M109.667 76.3333L110.333 76.6667L109.667 76.3333M154.667 76.3333L155.333 76.6667L154.667 76.3333z"/>
<path style="fill:#c8c6d6; stroke:none;" d="M156 76L157 77L156 76z"/>
<path style="fill:#aba9bd; stroke:none;" d="M29 77L30 78L29 77z"/>
<path style="fill:#c8c6d6; stroke:none;" d="M77 77L78 78L77 77z"/>
<path style="fill:#bbb9cb; stroke:none;" d="M78 77L78 78L81 78L78 77z"/>
<path style="fill:#c8c6d6; stroke:none;" d="M81 77L82 78L81 77z"/>
<path style="fill:#bbb9cb; stroke:none;" d="M105 77L106 78L105 77z"/>
<path style="fill:#aba9bd; stroke:none;" d="M159 77L160 78L159 77z"/>
<path style="fill:#bbb9cb; stroke:none;" d="M181 77L182 78L181 77M190 77L191 78L190 77M9 78L10 79L9 78z"/>
<path style="fill:#c8c6d6; stroke:none;" d="M30 78L31 79L30 78z"/>
<path style="fill:#bbb9cb; stroke:none;" d="M101 78L102 79L101 78z"/>
<path style="fill:#aba9bd; stroke:none;" d="M163 78L164 79L163 78z"/>
<path style="fill:#c8c6d6; stroke:none;" d="M184 78L185 79L184 78z"/>
<path style="fill:#bbb9cb; stroke:none;" d="M185.667 78.3333L186.333 78.6667L185.667 78.3333z"/>
<path style="fill:#c8c6d6; stroke:none;" d="M187 78L188 79L187 78M235 78L236 79L235 78z"/>
<path style="fill:#bbb9cb; stroke:none;" d="M97 79L98 80L97 79z"/>
<path style="fill:#aba9bd; stroke:none;" d="M98 79L99 80L98 79M167 79L168 80L167 79z"/>
<path style="fill:#bbb9cb; stroke:none;" d="M10 80L11 81L10 80M31 80L32 81L31 80z"/>
<path style="fill:#aba9bd; stroke:none;" d="M94 80L95 81L94 80M170 80L171 81L170 80z"/>
<path style="fill:#bbb9cb; stroke:none;" d="M234 80L235 81L234 80M173 81L174 82L173 81M11 82L12 83L11 82z"/>
<path style="fill:#c8c6d6; stroke:none;" d="M88 82L89 83L88 82z"/>
<path style="fill:#bbb9cb; stroke:none;" d="M176 82L177 83L176 82M33 83L34 84L33 83z"/>
<path style="fill:#c8c6d6; stroke:none;" d="M85 83L86 84L85 83z"/>
<path style="fill:#aba9bd; stroke:none;" d="M86 83L87 84L86 83M178 83L179 84L178 83z"/>
<path style="fill:#c8c6d6; stroke:none;" d="M179 83L180 84L179 83z"/>
<path style="fill:#aba9bd; stroke:none;" d="M232 83L233 84L232 83z"/>
<path style="fill:#bbb9cb; stroke:none;" d="M12 84L13 85L12 84M83 84L84 85L83 84z"/>
<path style="fill:#aba9bd; stroke:none;" d="M181 84L182 85L181 84M81 85L82 86L81 85M183 85L184 86L183 85M252 85L253 86L252 85z"/>
<path style="fill:#c8c6d6; stroke:none;" d="M78 86L79 87L78 86M186 86L187 87L186 86z"/>
<path style="fill:#aba9bd; stroke:none;" d="M230 86L231 87L230 86M14 87L15 88L14 87M36 87L37 88L36 87z"/>
<path style="fill:#bbb9cb; stroke:none;" d="M76 87L77 88L76 87M188 87L189 88L188 87M229 87L230 88L229 87z"/>
<path style="fill:#aba9bd; stroke:none;" d="M251 87L252 88L251 87z"/>
<path style="fill:#bbb9cb; stroke:none;" d="M74 88L75 89L74 88M190 88L191 89L190 88M15 89L16 90L15 89z"/>
<path style="fill:#c8c6d6; stroke:none;" d="M38 89L39 90L38 89M72 89L73 90L72 89z"/>
<path style="fill:#aba9bd; stroke:none;" d="M192 89L193 90L192 89z"/>
<path style="fill:#bbb9cb; stroke:none;" d="M39 90L40 91L39 90M70 90L71 91L70 90M194 90L195 91L194 90z"/>
<path style="fill:#c8c6d6; stroke:none;" d="M16 91L17 92L16 91z"/>
<path style="fill:#bbb9cb; stroke:none;" d="M68 91L69 92L68 91M196 91L197 92L196 91z"/>
<path style="fill:#aba9bd; stroke:none;" d="M226 91L227 92L226 91M17 92L18 93L17 92z"/>
<path style="fill:#c8c6d6; stroke:none;" d="M40 92L41 93L40 92z"/>
<path style="fill:#aba9bd; stroke:none;" d="M126 92L126 93L139 93L126 92z"/>
<path style="fill:#bbb9cb; stroke:none;" d="M225 92L226 93L225 92M248 92L249 93L248 92z"/>
<path style="fill:#aba9bd; stroke:none;" d="M40 93L41 94L40 93M65 93L66 94L65 93M117 93L118 94L117 93z"/>
<path style="fill:#bbb9cb; stroke:none;" d="M118 93L119 94L118 93z"/>
<path style="fill:#ffffff; stroke:none;" d="M31 143C75.7065 187.336 135.76 207.333 193 174.573C207.978 166 221.821 155.178 234 143C226.529 132.394 214.682 124.441 204 117.333C154.308 84.2695 99.3963 86.7571 52.5756 123.975C44.9509 130.035 36.9741 135.127 31 143z"/>
<path style="fill:#bbb9cb; stroke:none;" d="M146 93L147 94L146 93z"/>
<path style="fill:#aba9bd; stroke:none;" d="M147 93L148 94L147 93z"/>
<path style="fill:#c8c6d6; stroke:none;" d="M200 93L201 94L200 93z"/>
<path style="fill:#aba9bd; stroke:none;" d="M63 94L64 95L63 94M112 94L113 95L112 94z"/>
<path style="fill:#bbb9cb; stroke:none;" d="M113 94L114 95L113 94z"/>
<path style="fill:#c8c6d6; stroke:none;" d="M151 94L152 95L151 94z"/>
<path style="fill:#aba9bd; stroke:none;" d="M152 94L153 95L152 94z"/>
<path style="fill:#bbb9cb; stroke:none;" d="M224 94L225 95L224 94M19 95L20 96L19 95M61 95L62 96L61 95z"/>
<path style="fill:#aba9bd; stroke:none;" d="M108 95L109 96L108 95z"/>
<path style="fill:#c8c6d6; stroke:none;" d="M109 95L110 96L109 95M155 95L156 96L155 95z"/>
<path style="fill:#aba9bd; stroke:none;" d="M156 95L157 96L156 95M203 95L204 96L203 95M224 95L224 99L225 99L224 95z"/>
<path style="fill:#c8c6d6; stroke:none;" d="M246 95L247 96L246 95z"/>
<path style="fill:#aba9bd; stroke:none;" d="M20 96L21 97L20 96M104 96L105 97L104 96z"/>
<path style="fill:#c8c6d6; stroke:none;" d="M105 96L106 97L105 96M159 96L160 97L159 96z"/>
<path style="fill:#aba9bd; stroke:none;" d="M160 96L161 97L160 96M245 96L246 97L245 96M58 97L59 98L58 97z"/>
<path style="fill:#c8c6d6; stroke:none;" d="M101 97L102 98L101 97z"/>
<path style="fill:#aba9bd; stroke:none;" d="M164 97L165 98L164 97M40 98L41 99L40 98z"/>
<path style="fill:#bbb9cb; stroke:none;" d="M56 98L57 99L56 98M98 98L99 99L98 98z"/>
<path style="fill:#c8c6d6; stroke:none;" d="M166 98L167 99L166 98z"/>
<path style="fill:#aba9bd; stroke:none;" d="M208 98L209 99L208 98z"/>
<path style="fill:#c8c6d6; stroke:none;" d="M22 99L23 100L22 99M40 99L41 100L40 99z"/>
<path style="fill:#aba9bd; stroke:none;" d="M95 99L96 100L95 99z"/>
<path style="fill:#c8c6d6; stroke:none;" d="M168 99L169 100L168 99z"/>
<path style="fill:#bbb9cb; stroke:none;" d="M169 99L170 100L169 99z"/>
<path style="fill:#c8c6d6; stroke:none;" d="M243 99L244 100L243 99M23 100L24 101L23 100z"/>
<path style="fill:#aba9bd; stroke:none;" d="M39 100L40 101L39 100z"/>
<path style="fill:#bbb9cb; stroke:none;" d="M53 100L54 101L53 100z"/>
<path style="fill:#aba9bd; stroke:none;" d="M92 100L93 101L92 100z"/>
<path style="fill:#bbb9cb; stroke:none;" d="M172 100L173 101L172 100z"/>
<path style="fill:#aba9bd; stroke:none;" d="M211 100L212 101L211 100M242 100L243 101L242 100z"/>
<path style="fill:#c8c6d6; stroke:none;" d="M24 101L25 102L24 101M39 101L40 102L39 101M90 101L91 102L90 101z"/>
<path style="fill:#aba9bd; stroke:none;" d="M225 101L226 102L225 101M241 101L242 102L241 101M25 102L26 103L25 102z"/>
<path style="fill:#bbb9cb; stroke:none;" d="M38 102L39 103L38 102M50 102L51 103L50 102M88 102L89 103L88 102z"/>
<path style="fill:#c8c6d6; stroke:none;" d="M176 102L177 103L176 102z"/>
<path style="fill:#aba9bd; stroke:none;" d="M177 102L178 103L177 102M214 102L215 103L214 102M240 102L241 103L240 102z"/>
<path style="fill:#c8c6d6; stroke:none;" d="M26 103L27 104L26 103z"/>
<path style="fill:#aba9bd; stroke:none;" d="M85 103L86 104L85 103z"/>
<path style="fill:#c8c6d6; stroke:none;" d="M86 103L87 104L86 103z"/>
<path style="fill:#aba9bd; stroke:none;" d="M179 103L180 104L179 103z"/>
<path style="fill:#c8c6d6; stroke:none;" d="M216 103L217 104L216 103z"/>
<path style="fill:#bbb9cb; stroke:none;" d="M28 104L29 105L28 104z"/>
<path style="fill:#aba9bd; stroke:none;" d="M29 104L30 105L29 104M34 104L35 105L34 104z"/>
<path style="fill:#c8c6d6; stroke:none;" d="M35 104L36 105L35 104M47 104L48 105L47 104z"/>
<path style="fill:#aba9bd; stroke:none;" d="M83 104L84 105L83 104z"/>
<path style="fill:#c8c6d6; stroke:none;" d="M181 104L182 105L181 104z"/>
<path style="fill:#aba9bd; stroke:none;" d="M217 104L218 105L217 104M228 104L229 105L228 104M238 104L239 105L238 104M46 105L47 106L46 105M81 105L82 106L81 105M183 105L184 106L183 105z"/>
<path style="fill:#c8c6d6; stroke:none;" d="M229 105L230 106L229 105z"/>
<path style="fill:#aba9bd; stroke:none;" d="M230 105L231 106L230 105M236 105L237 106L236 105M79 106L80 107L79 106M185 106L186 107L185 106z"/>
<path style="fill:#c8c6d6; stroke:none;" d="M220 106L221 107L220 106z"/>
<path style="fill:#bbb9cb; stroke:none;" d="M43 107L44 108L43 107z"/>
<path style="fill:#aba9bd; stroke:none;" d="M77 107L78 108L77 107M187 107L188 108L187 107M221 107L222 108L221 107M75 108L76 109L75 108z"/>
<path style="fill:#c8c6d6; stroke:none;" d="M130 108L130 109L136 109L130 108z"/>
<path style="fill:#bbb9cb; stroke:none;" d="M189 108L190 109L189 108z"/>
<path style="fill:#c8c6d6; stroke:none;" d="M40 109L41 110L40 109z"/>
<path style="fill:#bbb9cb; stroke:none;" d="M124 109L125 110L124 109z"/>
<path style="fill:#8b85b0; stroke:none;" d="M157 120C156.998 122.967 157.286 126.191 156.142 128.999C148.165 148.591 119.942 129.557 135.108 115.214C137.428 113.02 140.003 111.89 143 111C128.518 102.325 108.466 114.874 101.995 128C94.6138 142.975 100.527 161.601 114 170.776C127.941 180.27 148.07 176.698 158.671 163.996C168.357 152.391 169.785 130.034 157 120z"/>
<path style="fill:#aba9bd; stroke:none;" d="M140 109L141 110L140 109z"/>
<path style="fill:#bbb9cb; stroke:none;" d="M141 109L142 110L141 109z"/>
<path style="fill:#aba9bd; stroke:none;" d="M191 109L192 110L191 109z"/>
<path style="fill:#c8c6d6; stroke:none;" d="M224 109L225 110L224 109z"/>
<path style="fill:#aba9bd; stroke:none;" d="M39 110L40 111L39 110z"/>
<path style="fill:#bbb9cb; stroke:none;" d="M72 110L73 111L72 110z"/>
<path style="fill:#aba9bd; stroke:none;" d="M121 110L122 111L121 110z"/>
<path style="fill:#c8c6d6; stroke:none;" d="M143 110L144 111L143 110M192 110L193 111L192 110z"/>
<path style="fill:#aba9bd; stroke:none;" d="M225 110L226 111L225 110M70 111L71 112L70 111M140.667 111.333L141.333 111.667L140.667 111.333z"/>
<path style="fill:#c8c6d6; stroke:none;" d="M142 111L143 112L142 111M194 111L195 112L194 111M116 112L117 113L116 112z"/>
<path style="fill:#aba9bd; stroke:none;" d="M196 112L197 113L196 112z"/>
<path style="fill:#c8c6d6; stroke:none;" d="M228 112L229 113L228 112z"/>
<path style="fill:#bbb9cb; stroke:none;" d="M35 113L36 114L35 113M67 113L68 114L67 113z"/>
<path style="fill:#aba9bd; stroke:none;" d="M136 113L137 114L136 113M229 113L230 114L229 113M34 114L35 115L34 114M65 114L66 115L65 114z"/>
<path style="fill:#bbb9cb; stroke:none;" d="M113 114L114 115L113 114z"/>
<path style="fill:#c8c6d6; stroke:none;" d="M135 114L136 115L135 114z"/>
<path style="fill:#aba9bd; stroke:none;" d="M199 114L200 115L199 114M33 115L34 116L33 115M112 115L113 116L112 115z"/>
<path style="fill:#bbb9cb; stroke:none;" d="M62 116L63 117L62 116z"/>
<path style="fill:#c8c6d6; stroke:none;" d="M133 116L134 117L133 116M202 116L203 117L202 116M233 116L234 117L233 116M30 117L31 118L30 117M109 117L110 118L109 117z"/>
<path style="fill:#aba9bd; stroke:none;" d="M132 117L133 118L132 117M204 117L205 118L204 117z"/>
<path style="fill:#bbb9cb; stroke:none;" d="M234 117L235 118L234 117z"/>
<path style="fill:#aba9bd; stroke:none;" d="M59 118L60 119L59 118z"/>
<path style="fill:#c8c6d6; stroke:none;" d="M156 118L157 119L156 118z"/>
<path style="fill:#bbb9cb; stroke:none;" d="M205 118L206 119L205 118M235 118L236 119L235 118z"/>
<path style="fill:#aba9bd; stroke:none;" d="M28 119L29 120L28 119z"/>
<path style="fill:#c8c6d6; stroke:none;" d="M58 119L59 120L58 119z"/>
<path style="fill:#bbb9cb; stroke:none;" d="M131 119L132 120L131 119z"/>
<path style="fill:#aba9bd; stroke:none;" d="M156 119L156 121L158 119L156 119M236 119L237 120L236 119M27 120L28 121L27 120z"/>
<path style="fill:#c8c6d6; stroke:none;" d="M106 120L107 121L106 120z"/>
<path style="fill:#aba9bd; stroke:none;" d="M158 120L159 121L158 120z"/>
<path style="fill:#bbb9cb; stroke:none;" d="M208 120L209 121L208 120M55 121L56 122L55 121z"/>
<path style="fill:#c8c6d6; stroke:none;" d="M156 121L157 122L156 121M159 121L160 122L159 121M54 122L55 123L54 122z"/>
<path style="fill:#aba9bd; stroke:none;" d="M105 122L106 123L105 122M130 122L131 123L130 122M211 122L212 123L211 122M52 123L53 124L52 123M104 123L105 124L104 123z"/>
<path style="fill:#c8c6d6; stroke:none;" d="M130 123L131 124L130 123M241 123L242 124L241 123z"/>
<path style="fill:#bbb9cb; stroke:none;" d="M51 124L52 125L51 124z"/>
<path style="fill:#c8c6d6; stroke:none;" d="M52 124L53 125L52 124z"/>
<path style="fill:#bbb9cb; stroke:none;" d="M161 124L162 125L161 124z"/>
<path style="fill:#c8c6d6; stroke:none;" d="M242 124L243 125L242 124M50 125L51 126L50 125z"/>
<path style="fill:#aba9bd; stroke:none;" d="M103 125L104 126L103 125z"/>
<path style="fill:#c8c6d6; stroke:none;" d="M130 125L131 126L130 125z"/>
<path style="fill:#aba9bd; stroke:none;" d="M215 125L216 126L215 125z"/>
<path style="fill:#c8c6d6; stroke:none;" d="M243 125L244 126L243 125z"/>
<path style="fill:#aba9bd; stroke:none;" d="M48 126L49 127L48 126z"/>
<path style="fill:#c8c6d6; stroke:none;" d="M49 126L50 127L49 126M102 126L103 127L102 126z"/>
<path style="fill:#bbb9cb; stroke:none;" d="M130 126L131 127L130 126z"/>
<path style="fill:#aba9bd; stroke:none;" d="M162 126L163 127L162 126z"/>
<path style="fill:#bbb9cb; stroke:none;" d="M216 126L217 127L216 126M244 126L245 127L244 126z"/>
<path style="fill:#c8c6d6; stroke:none;" d="M19 127L20 128L19 127z"/>
<path style="fill:#bbb9cb; stroke:none;" d="M47 127L48 128L47 127z"/>
<path style="fill:#aba9bd; stroke:none;" d="M130 127L131 128L130 127z"/>
<path style="fill:#bbb9cb; stroke:none;" d="M245 127L246 128L245 127M46 128L47 129L46 128z"/>
<path style="fill:#c8c6d6; stroke:none;" d="M101 128L102 129L101 128z"/>
<path style="fill:#bbb9cb; stroke:none;" d="M156 128L157 129L156 128z"/>
<path style="fill:#aba9bd; stroke:none;" d="M163 128L164 129L163 128z"/>
<path style="fill:#bbb9cb; stroke:none;" d="M246 128L247 129L246 128z"/>
<path style="fill:#aba9bd; stroke:none;" d="M156 129L157 130L156 129M220 129L221 130L220 129z"/>
<path style="fill:#bbb9cb; stroke:none;" d="M247 129L248 130L247 129z"/>
<path style="fill:#aba9bd; stroke:none;" d="M43 130L44 131L43 130z"/>
<path style="fill:#c8c6d6; stroke:none;" d="M155 130L156 131L155 130M164 130L165 131L164 130z"/>
<path style="fill:#aba9bd; stroke:none;" d="M221 130L222 131L221 130z"/>
<path style="fill:#bbb9cb; stroke:none;" d="M248 130L249 131L248 130z"/>
<path style="fill:#c8c6d6; stroke:none;" d="M15 131L16 132L15 131z"/>
<path style="fill:#aba9bd; stroke:none;" d="M42 131L43 132L42 131z"/>
<path style="fill:#bbb9cb; stroke:none;" d="M100 131L101 132L100 131z"/>
<path style="fill:#aba9bd; stroke:none;" d="M164 131L165 132L164 131z"/>
<path style="fill:#c8c6d6; stroke:none;" d="M222 131L223 132L222 131z"/>
<path style="fill:#bbb9cb; stroke:none;" d="M249 131L250 132L249 131z"/>
<path style="fill:#c8c6d6; stroke:none;" d="M41 132L42 133L41 132z"/>
<path style="fill:#bbb9cb; stroke:none;" d="M154 132L155 133L154 132M250 132L251 133L250 132M40 133L41 134L40 133z"/>
<path style="fill:#c8c6d6; stroke:none;" d="M153 133L154 134L153 133M165 133L166 134L165 133z"/>
<path style="fill:#bbb9cb; stroke:none;" d="M251 133L252 134L251 133M99 134L100 135L99 134z"/>
<path style="fill:#c8c6d6; stroke:none;" d="M151 134L152 135L151 134z"/>
<path style="fill:#aba9bd; stroke:none;" d="M165 134L166 135L165 134z"/>
<path style="fill:#bbb9cb; stroke:none;" d="M252 134L253 135L252 134z"/>
<path style="fill:#c8c6d6; stroke:none;" d="M11 135L12 136L11 135z"/>
<path style="fill:#aba9bd; stroke:none;" d="M99 135L100 136L99 135z"/>
<path style="fill:#bbb9cb; stroke:none;" d="M136 135L137 136L136 135z"/>
<path style="fill:#aba9bd; stroke:none;" d="M151 135L152 136L151 135M137 136L138 137L137 136z"/>
<path style="fill:#bbb9cb; stroke:none;" d="M149 136L150 137L149 136z"/>
<path style="fill:#aba9bd; stroke:none;" d="M228 136L229 137L228 136M10 137L11 138L10 137z"/>
<path style="fill:#c8c6d6; stroke:none;" d="M146 137L147 138L146 137z"/>
<path style="fill:#aba9bd; stroke:none;" d="M147 137L148 138L147 137z"/>
<path style="fill:#bbb9cb; stroke:none;" d="M166.333 137.667L166.667 138.333L166.333 137.667z"/>
<path style="fill:#aba9bd; stroke:none;" d="M229 137L230 138L229 137M254 137L255 138L254 137z"/>
<path style="fill:#bbb9cb; stroke:none;" d="M230 138L231 139L230 138M255 138L256 139L255 138z"/>
<path style="fill:#aba9bd; stroke:none;" d="M9 139L10 140L9 139z"/>
<path style="fill:#c8c6d6; stroke:none;" d="M98.3333 139.667L98.6667 140.333L98.3333 139.667z"/>
<path style="fill:#aba9bd; stroke:none;" d="M166 139L166 146L167 146L166 139z"/>
<path style="fill:#bbb9cb; stroke:none;" d="M231 139L232 140L231 139z"/>
<path style="fill:#aba9bd; stroke:none;" d="M255 139L256 140L255 139M32 140L31 142L32 140M232 140L233 141L232 140z"/>
<path style="fill:#c8c6d6; stroke:none;" d="M256 140L256 144L257 144L256 140M8 141L9 142L8 141M32 141L33 142L32 141z"/>
<path style="fill:#bbb9cb; stroke:none;" d="M98 141L98 145L99 145L98 141M233 141L234 142L233 141z"/>
<path style="fill:#aba9bd; stroke:none;" d="M234 142L235 143L234 142z"/>
<path style="fill:#bbb9cb; stroke:none;" d="M233 143L234 144L233 143M232 144L233 145L232 144z"/>
<path style="fill:#aba9bd; stroke:none;" d="M9 145L10 146L9 145z"/>
<path style="fill:#c8c6d6; stroke:none;" d="M98 145L99 146L98 145M231 145L232 146L231 145z"/>
<path style="fill:#aba9bd; stroke:none;" d="M255 145L256 146L255 145z"/>
<path style="fill:#bbb9cb; stroke:none;" d="M166.333 146.667L166.667 147.333L166.333 146.667M230 146L231 147L230 146M255 146L256 147L255 146z"/>
<path style="fill:#aba9bd; stroke:none;" d="M10 147L11 148L10 147M229 147L230 148L229 147M254 147L255 148L254 147z"/>
<path style="fill:#c8c6d6; stroke:none;" d="M166 148L167 149L166 148z"/>
<path style="fill:#aba9bd; stroke:none;" d="M228 148L229 149L228 148M99 149L100 150L99 149z"/>
<path style="fill:#c8c6d6; stroke:none;" d="M253 149L254 150L253 149M39 150L40 151L39 150z"/>
<path style="fill:#bbb9cb; stroke:none;" d="M99 150L100 151L99 150z"/>
<path style="fill:#aba9bd; stroke:none;" d="M165 150L166 151L165 150M40 151L41 152L40 151z"/>
<path style="fill:#bbb9cb; stroke:none;" d="M165 151L166 152L165 151z"/>
<path style="fill:#c8c6d6; stroke:none;" d="M251 151L252 152L251 151z"/>
<path style="fill:#bbb9cb; stroke:none;" d="M41 152L42 153L41 152z"/>
<path style="fill:#c8c6d6; stroke:none;" d="M250 152L251 153L250 152z"/>
<path style="fill:#aba9bd; stroke:none;" d="M42 153L43 154L42 153z"/>
<path style="fill:#bbb9cb; stroke:none;" d="M100 153L101 154L100 153z"/>
<path style="fill:#aba9bd; stroke:none;" d="M164 153L165 154L164 153z"/>
<path style="fill:#bbb9cb; stroke:none;" d="M222 153L223 154L222 153z"/>
<path style="fill:#c8c6d6; stroke:none;" d="M249 153L250 154L249 153M164 154L165 155L164 154z"/>
<path style="fill:#aba9bd; stroke:none;" d="M221 154L222 155L221 154z"/>
<path style="fill:#bbb9cb; stroke:none;" d="M248 154L249 155L248 154M247 155L248 156L247 155z"/>
<path style="fill:#c8c6d6; stroke:none;" d="M46 156L47 157L46 156M101 156L102 157L101 156z"/>
<path style="fill:#aba9bd; stroke:none;" d="M163 156L164 157L163 156z"/>
<path style="fill:#bbb9cb; stroke:none;" d="M246 156L247 157L246 156z"/>
<path style="fill:#aba9bd; stroke:none;" d="M47 157L48 158L47 157z"/>
<path style="fill:#c8c6d6; stroke:none;" d="M217 157L218 158L217 157z"/>
<path style="fill:#bbb9cb; stroke:none;" d="M245 157L246 158L245 157z"/>
<path style="fill:#c8c6d6; stroke:none;" d="M102 158L103 159L102 158z"/>
<path style="fill:#aba9bd; stroke:none;" d="M162 158L163 159L162 158M216 158L217 159L216 158z"/>
<path style="fill:#c8c6d6; stroke:none;" d="M244 158L245 159L244 158z"/>
<path style="fill:#aba9bd; stroke:none;" d="M103 159L104 160L103 159M215 159L216 160L215 159z"/>
<path style="fill:#bbb9cb; stroke:none;" d="M51 160L52 161L51 160M161 160L162 161L161 160z"/>
<path style="fill:#c8c6d6; stroke:none;" d="M213 160L214 161L213 160z"/>
<path style="fill:#aba9bd; stroke:none;" d="M52 161L53 162L52 161z"/>
<path style="fill:#bbb9cb; stroke:none;" d="M104 161L105 162L104 161z"/>
<path style="fill:#aba9bd; stroke:none;" d="M160 161L161 162L160 161z"/>
<path style="fill:#bbb9cb; stroke:none;" d="M212 161L213 162L212 161z"/>
<path style="fill:#aba9bd; stroke:none;" d="M105 162L106 163L105 162M211 162L212 163L211 162M26 163L27 164L26 163z"/>
<path style="fill:#bbb9cb; stroke:none;" d="M55 163L56 164L55 163z"/>
<path style="fill:#c8c6d6; stroke:none;" d="M159 163L160 164L159 163z"/>
<path style="fill:#aba9bd; stroke:none;" d="M27 164L28 165L27 164M56 164L57 165L56 164z"/>
<path style="fill:#bbb9cb; stroke:none;" d="M158 164L159 165L158 164M208 164L209 165L208 164M28 165L29 166L28 165M58 165L59 166L58 165M157 165L158 166L157 165z"/>
<path style="fill:#c8c6d6; stroke:none;" d="M206 165L207 166L206 165z"/>
<path style="fill:#aba9bd; stroke:none;" d="M236 165L237 166L236 165z"/>
<path style="fill:#c8c6d6; stroke:none;" d="M29 166L30 167L29 166z"/>
<path style="fill:#aba9bd; stroke:none;" d="M59 166L60 167L59 166z"/>
<path style="fill:#bbb9cb; stroke:none;" d="M156 166L157 167L156 166M205 166L206 167L205 166M235 166L236 167L235 166z"/>
<path style="fill:#c8c6d6; stroke:none;" d="M30 167L31 168L30 167z"/>
<path style="fill:#aba9bd; stroke:none;" d="M155 167L156 168L155 167M204 167L205 168L204 167z"/>
<path style="fill:#bbb9cb; stroke:none;" d="M234 167L235 168L234 167z"/>
<path style="fill:#aba9bd; stroke:none;" d="M62 168L63 169L62 168z"/>
<path style="fill:#bbb9cb; stroke:none;" d="M154 168L155 169L154 168M202 168L203 169L202 168z"/>
<path style="fill:#aba9bd; stroke:none;" d="M33 169L34 170L33 169z"/>
<path style="fill:#c8c6d6; stroke:none;" d="M64 169L65 170L64 169z"/>
<path style="fill:#aba9bd; stroke:none;" d="M112 169L113 170L112 169M201 169L202 170L201 169M34 170L35 171L34 170M65 170L66 171L65 170M113 170L114 171L113 170M151 170L152 171L151 170z"/>
<path style="fill:#bbb9cb; stroke:none;" d="M199 170L200 171L199 170z"/>
<path style="fill:#c8c6d6; stroke:none;" d="M35 171L36 172L35 171M67 171L68 172L67 171z"/>
<path style="fill:#bbb9cb; stroke:none;" d="M229 171L230 172L229 171z"/>
<path style="fill:#c8c6d6; stroke:none;" d="M116 172L117 173L116 172z"/>
<path style="fill:#bbb9cb; stroke:none;" d="M148 172L149 173L148 172z"/>
<path style="fill:#aba9bd; stroke:none;" d="M196 172L197 173L196 172M70 173L71 174L70 173z"/>
<path style="fill:#bbb9cb; stroke:none;" d="M118 173L119 174L118 173z"/>
<path style="fill:#aba9bd; stroke:none;" d="M146 173L147 174L146 173z"/>
<path style="fill:#c8c6d6; stroke:none;" d="M194 173L195 174L194 173z"/>
<path style="fill:#bbb9cb; stroke:none;" d="M39 174L40 175L39 174M72 174L73 175L72 174z"/>
<path style="fill:#aba9bd; stroke:none;" d="M121 174L122 175L121 174M143 174L144 175L143 174z"/>
<path style="fill:#c8c6d6; stroke:none;" d="M144 174L145 175L144 174z"/>
<path style="fill:#aba9bd; stroke:none;" d="M225 174L226 175L225 174z"/>
<path style="fill:#c8c6d6; stroke:none;" d="M74 175L75 176L74 175M124 175L125 176L124 175z"/>
<path style="fill:#aba9bd; stroke:none;" d="M125 175L126 176L125 175M139 175L140 176L139 175z"/>
<path style="fill:#bbb9cb; stroke:none;" d="M140 175L141 176L140 175z"/>
<path style="fill:#aba9bd; stroke:none;" d="M191 175L192 176L191 175M75 176L76 177L75 176z"/>
<path style="fill:#c8c6d6; stroke:none;" d="M76 176L77 177L76 176M129.667 176.333L130.333 176.667L129.667 176.333z"/>
<path style="fill:#bbb9cb; stroke:none;" d="M131 176L131 177L134 177L131 176z"/>
<path style="fill:#c8c6d6; stroke:none;" d="M134.667 176.333L135.333 176.667L134.667 176.333z"/>
<path style="fill:#aba9bd; stroke:none;" d="M189 176L190 177L189 176M43 177L44 178L43 177M77 177L78 178L77 177z"/>
<path style="fill:#c8c6d6; stroke:none;" d="M78 177L79 178L78 177z"/>
<path style="fill:#aba9bd; stroke:none;" d="M187 177L188 178L187 177M221 177L222 178L221 177M79 178L80 179L79 178z"/>
<path style="fill:#c8c6d6; stroke:none;" d="M185 178L186 179L185 178z"/>
<path style="fill:#aba9bd; stroke:none;" d="M46 179L47 180L46 179M81 179L82 180L81 179z"/>
<path style="fill:#bbb9cb; stroke:none;" d="M183 179L184 180L183 179z"/>
<path style="fill:#c8c6d6; stroke:none;" d="M47 180L48 181L47 180z"/>
<path style="fill:#aba9bd; stroke:none;" d="M83 180L84 181L83 180z"/>
<path style="fill:#bbb9cb; stroke:none;" d="M181 180L182 181L181 180M217 180L218 181L217 180z"/>
<path style="fill:#aba9bd; stroke:none;" d="M179 181L180 182L179 181z"/>
<path style="fill:#bbb9cb; stroke:none;" d="M50 182L51 183L50 182z"/>
<path style="fill:#aba9bd; stroke:none;" d="M177 182L178 183L177 182M214 182L215 183L214 182z"/>
<path style="fill:#bbb9cb; stroke:none;" d="M90 183L91 184L90 183z"/>
<path style="fill:#c8c6d6; stroke:none;" d="M174 183L175 184L174 183z"/>
<path style="fill:#bbb9cb; stroke:none;" d="M53 184L54 185L53 184z"/>
<path style="fill:#c8c6d6; stroke:none;" d="M93 184L94 185L93 184z"/>
<path style="fill:#aba9bd; stroke:none;" d="M172 184L173 185L172 184M211 184L212 185L211 184M55 185L56 186L55 185z"/>
<path style="fill:#bbb9cb; stroke:none;" d="M95 185L96 186L95 185M169 185L170 186L169 185z"/>
<path style="fill:#c8c6d6; stroke:none;" d="M98 186L99 187L98 186M208 186L209 187L208 186z"/>
<path style="fill:#aba9bd; stroke:none;" d="M58 187L59 188L58 187M101 187L102 188L101 187z"/>
<path style="fill:#c8c6d6; stroke:none;" d="M102 187L103 188L102 187z"/>
<path style="fill:#bbb9cb; stroke:none;" d="M163 187L164 188L163 187z"/>
<path style="fill:#aba9bd; stroke:none;" d="M104 188L105 189L104 188z"/>
<path style="fill:#c8c6d6; stroke:none;" d="M105 188L106 189L105 188M159 188L160 189L159 188z"/>
<path style="fill:#aba9bd; stroke:none;" d="M160 188L161 189L160 188z"/>
<path style="fill:#c8c6d6; stroke:none;" d="M205 188L206 189L205 188z"/>
<path style="fill:#bbb9cb; stroke:none;" d="M61 189L62 190L61 189z"/>
<path style="fill:#aba9bd; stroke:none;" d="M108 189L109 190L108 189z"/>
<path style="fill:#bbb9cb; stroke:none;" d="M156 189L157 190L156 189z"/>
<path style="fill:#aba9bd; stroke:none;" d="M203 189L204 190L203 189z"/>
<path style="fill:#bbb9cb; stroke:none;" d="M63 190L64 191L63 190z"/>
<path style="fill:#aba9bd; stroke:none;" d="M112 190L113 191L112 190z"/>
<path style="fill:#c8c6d6; stroke:none;" d="M113 190L113 191L116 191L113 190M151 190L152 191L151 190z"/>
<path style="fill:#aba9bd; stroke:none;" d="M152 190L153 191L152 190M201 190L202 191L201 190M65 191L66 192L65 191M118 191L118 192L121 192L118 191z"/>
<path style="fill:#bbb9cb; stroke:none;" d="M121 191L122 192L121 191z"/>
<path style="fill:#c8c6d6; stroke:none;" d="M143 191L144 192L143 191z"/>
<path style="fill:#bbb9cb; stroke:none;" d="M144 191L145 192L144 191z"/>
<path style="fill:#aba9bd; stroke:none;" d="M145 191L145 192L148 192L145 191z"/>
<path style="fill:#c8c6d6; stroke:none;" d="M200 191L201 192L200 191M66 192L67 193L66 192z"/>
<path style="fill:#aba9bd; stroke:none;" d="M128 192L128 193L138 193L128 192z"/>
<path style="fill:#c8c6d6; stroke:none;" d="M198 192L199 193L198 192M68 193L69 194L68 193z"/>
<path style="fill:#bbb9cb; stroke:none;" d="M196 193L197 194L196 193M194 194L195 195L194 194M72 195L73 196L72 195z"/>
<path style="fill:#aba9bd; stroke:none;" d="M192 195L193 196L192 195z"/>
<path style="fill:#c8c6d6; stroke:none;" d="M74 196L75 197L74 196z"/>
<path style="fill:#bbb9cb; stroke:none;" d="M190 196L191 197L190 196z"/>
<path style="fill:#c8c6d6; stroke:none;" d="M76 197L77 198L76 197M188 197L189 198L188 197z"/>
<path style="fill:#aba9bd; stroke:none;" d="M79 198L80 199L79 198z"/>
<path style="fill:#bbb9cb; stroke:none;" d="M81 199L82 200L81 199z"/>
<path style="fill:#aba9bd; stroke:none;" d="M183 199L184 200L183 199z"/>
<path style="fill:#bbb9cb; stroke:none;" d="M83 200L84 201L83 200M181 200L182 201L181 200z"/>
<path style="fill:#aba9bd; stroke:none;" d="M86 201L87 202L86 201M178 201L179 202L178 201z"/>
<path style="fill:#c8c6d6; stroke:none;" d="M179 201L180 202L179 201M88 202L89 203L88 202z"/>
<path style="fill:#bbb9cb; stroke:none;" d="M176 202L177 203L176 202z"/>
<path style="fill:#c8c6d6; stroke:none;" d="M90 203L91 204L90 203z"/>
<path style="fill:#bbb9cb; stroke:none;" d="M91 203L92 204L91 203z"/>
<path style="fill:#aba9bd; stroke:none;" d="M173 203L174 204L173 203z"/>
<path style="fill:#bbb9cb; stroke:none;" d="M94 204L95 205L94 204M170 204L171 205L170 204z"/>
<path style="fill:#aba9bd; stroke:none;" d="M98 205L99 206L98 205M166 205L167 206L166 205z"/>
<path style="fill:#c8c6d6; stroke:none;" d="M167 205L168 206L167 205z"/>
<path style="fill:#aba9bd; stroke:none;" d="M101 206L102 207L101 206M163 206L164 207L163 206z"/>
<path style="fill:#c8c6d6; stroke:none;" d="M164 206L165 207L164 206M104 207L105 208L104 207z"/>
<path style="fill:#aba9bd; stroke:none;" d="M105.667 207.333L106.333 207.667L105.667 207.333M159 207L160 208L159 207z"/>
<path style="fill:#bbb9cb; stroke:none;" d="M160 207L161 208L160 207z"/>
<path style="fill:#c8c6d6; stroke:none;" d="M109 208L110 209L109 208z"/>
<path style="fill:#aba9bd; stroke:none;" d="M110 208L111 209L110 208M154 208L155 209L154 208z"/>
<path style="fill:#bbb9cb; stroke:none;" d="M155 208L156 209L155 208M115 209L116 210L115 209z"/>
<path style="fill:#aba9bd; stroke:none;" d="M116 209L117 210L116 209M148 209L149 210L148 209z"/>
<path style="fill:#bbb9cb; stroke:none;" d="M149 209L150 210L149 209M122.667 210.333L123.333 210.667L122.667 210.333z"/>
<path style="fill:#aba9bd; stroke:none;" d="M124 210L124 211L128 211L124 210M137 210L137 211L141 211L137 210z"/>
<path style="fill:#bbb9cb; stroke:none;" d="M141.667 210.333L142.333 210.667L141.667 210.333z"/>
<path style="fill:#c8c6d6; stroke:none;" d="M143 210L144 211L143 210z"/>
</svg>
